<?xml version="1.0" encoding="UTF-8"?>
<svg id="Layer_1" data-name="Layer 1" xmlns="http://www.w3.org/2000/svg" xmlns:xlink="http://www.w3.org/1999/xlink" viewBox="0 0 144 144">
  <defs>
    <style>
      .cls-1 {
        fill: url(#linear-gradient-2);
      }

      .cls-2 {
        fill: url(#linear-gradient);
      }
    </style>
    <linearGradient id="linear-gradient" x1="72.72" y1="83.1" x2="112.63" y2="39.79" gradientUnits="userSpaceOnUse">
      <stop offset="0" stop-color="#4260ec"/>
      <stop offset="1" stop-color="#79b9f2"/>
    </linearGradient>
    <linearGradient id="linear-gradient-2" x1="1.54" y1="135.5" x2="129.11" y2="24.63" gradientUnits="userSpaceOnUse">
      <stop offset="0" stop-color="#4260ec"/>
      <stop offset="1" stop-color="#798ef2"/>
    </linearGradient>
  </defs>
  <path class="cls-2" d="M132.68,44.22v19.91c-7.51,0-14.31,3.04-19.23,7.97-2.29,2.29-4.18,5-5.54,8-.3-1.37-.67-2.72-1.09-4.05-1.8-5.72-4.63-11.1-8.42-15.95-.15-.19-.31-.39-.46-.58-1.13-1.39-2.35-2.75-3.64-4.04-2.02-2.03-4.26-3.92-6.65-5.61-.68-.48-1.38-.95-2.08-1.38v-21.26c0-5.87,4.76-10.62,10.63-10.62,2.93,0,5.59,1.19,7.51,3.11,1.92,1.92,3.11,4.57,3.11,7.51v24.73c7.42-4.89,16.31-7.74,25.86-7.74Z"/>
  <path class="cls-1" d="M132.68,118.52v19.92c-9.55,0-18.44-2.85-25.86-7.74-.31-.2-.62-.41-.93-.62-2.91-2.01-5.57-4.34-7.94-6.94-.67-.72-1.32-1.47-1.91-2.24-.17-.19-.32-.38-.47-.57-5.98-7.62-9.65-17.12-9.98-27.48v-.02c.04-.5.05-1,.05-1.5,0-.47-.01-.94-.04-1.4-.01,0-.01-.02,0-.04,0-.13-.01-.25-.03-.37-.44-6.79-3.37-12.9-7.9-17.42-4.92-4.93-11.72-7.97-19.23-7.97s-14.31,3.04-19.23,7.97c-2.99,2.99-5.29,6.69-6.63,10.82v56.78c-11.73,0-21.25-9.52-21.25-21.25V14.92c0-5.87,4.76-10.62,10.63-10.62,2.93,0,5.59,1.19,7.51,3.11,1.92,1.92,3.11,4.57,3.11,7.51v37.03c7.42-4.89,16.31-7.74,25.86-7.74,1.88,0,3.73.11,5.56.33,7.97.93,15.33,3.86,21.57,8.26,2.21,1.56,4.28,3.3,6.18,5.21,1.35,1.35,2.63,2.79,3.81,4.3,4.27,5.46,7.37,11.89,8.9,18.9h0c.72,3.26,1.09,6.64,1.09,10.11,0,.88-.02,1.75-.07,2.62.33,2.21.76,4.28,1.34,5.77,0,.03.02.06.03.09.3.94.66,1.85,1.07,2.73,4.26,9.43,13.74,15.98,24.76,15.98Z"/>
</svg>